<?xml version="1.0" encoding="UTF-8"?><svg id="uuid-74baf3b9-24c4-45c7-8923-8fcae08510b9" xmlns="http://www.w3.org/2000/svg" viewBox="0 0 179.83 200.34"><g id="uuid-4aa189b1-d405-4ce3-a2c4-3142061276e2"><rect x="117.51" y="152.63" width="8.95" height="37.68" transform="translate(-72.57 91.29) rotate(-32.17)" fill="#fa3650" stroke-width="0"/><path d="M119.43,159.02c-2.58,1.5-5.28,2.83-8.07,3.97l-3.2-5.08,7.57-4.76,3.7,5.87Z" fill="#7d1b28" stroke-width="0"/><path d="M119.09,187.42c0,7.14,5.79,12.92,12.92,12.92s12.93-5.79,12.93-12.92-5.79-12.93-12.93-12.93-12.92,5.79-12.92,12.93Z" fill="#fa3650" stroke-width="0"/><path d="M125.74,176.13c-.4,1.24-.61,2.56-.61,3.93,0,7.14,5.79,12.92,12.93,12.92,2.28,0,4.42-.6,6.29-1.63-1.66,5.21-6.55,8.99-12.31,8.99-7.14,0-12.92-5.79-12.92-12.92,0-4.86,2.68-9.08,6.64-11.29Z" fill="#7d1b28" stroke-width="0"/><path d="M136.04,179.31c1.66-.77,3.99.73,5.2,3.35,1.22,2.62.86,5.37-.79,6.13-1.65.77-3.98-.73-5.2-3.35-1.22-2.62-.86-5.37.79-6.14Z" fill="#fb5e73" stroke-width="0"/><rect x="40.67" y="162.09" width="37.06" height="8.95" transform="translate(-117.47 160.65) rotate(-68.52)" fill="#bc293c" stroke-width="0"/><path d="M61.83,147.69l8.32,3.28-5.13,13.03c-2.83-1.01-5.56-2.22-8.2-3.6l5-12.7Z" fill="#7d1b28" stroke-width="0"/><circle cx="52.42" cy="183.81" r="11.34" fill="#bc293c" stroke-width="0"/><path d="M46.49,174.16c-.23.9-.37,1.84-.37,2.81,0,6.26,5.08,11.34,11.34,11.34,2.17,0,4.2-.62,5.93-1.69-1.25,4.9-5.68,8.52-10.97,8.52-6.26,0-11.34-5.08-11.34-11.34,0-4.09,2.17-7.66,5.41-9.65Z" fill="#7d1b28" stroke-width="0"/><path d="M55.26,176.69c1.66-.77,3.99.73,5.2,3.35,1.22,2.62.86,5.37-.79,6.14-1.65.77-3.98-.73-5.2-3.35-1.22-2.62-.86-5.37.79-6.13Z" fill="#fa3650" stroke-width="0"/><path d="M7.95,96.41c0,3.85,3.12,6.98,6.98,6.98s6.98-3.12,6.98-6.98-3.12-6.98-6.98-6.98-6.98,3.12-6.98,6.98Z" fill="#7d1b28" stroke-width="0"/><path d="M79.2,176.19c0,3.85,3.12,6.97,6.98,6.97s6.98-3.12,6.98-6.97-3.12-6.98-6.98-6.98-6.98,3.12-6.98,6.98Z" fill="#7d1b28" stroke-width="0"/><path d="M68.93,22.58c0,2.98,2.41,5.39,5.39,5.39s5.39-2.41,5.39-5.39-2.41-5.39-5.39-5.39-5.39,2.41-5.39,5.39Z" fill="#7d1b28" stroke-width="0"/><rect x="153.68" y="109.14" width="5.75" height="15.59" transform="translate(25.03 261.45) rotate(-84.45)" fill="#bc293c" stroke-width="0"/><path d="M159.13,119.83c0-2.02.69-3.88,1.83-5.36l3.63.35-.56,5.72-4.89-.48c0-.08-.01-.16-.01-.24Z" fill="#7d1b28" stroke-width="0"/><rect x="72.99" y="22.46" width="5.37" height="16.31" transform="translate(-4.03 12.98) rotate(-9.55)" fill="#7d1b28" stroke-width="0"/><rect x="14.93" y="93.73" width="17.65" height="5.37" fill="#7d1b28" stroke-width="0"/><rect x="77.89" y="164.53" width="18" height="5.37" transform="translate(-86.71 240.52) rotate(-85.43)" fill="#7d1b28" stroke-width="0"/><rect x="139.02" y="138.99" width="4.15" height="12.46" transform="translate(-59.96 169.2) rotate(-52.63)" fill="#bc293c" stroke-width="0"/><path d="M144.79,150.65l-4.76-3.63c.79-1.24,2.04-2.16,3.5-2.55l3.78,2.88-2.52,3.29Z" fill="#7d1b28" stroke-width="0"/><rect x="152.53" y="82.55" width="10.21" height="3.77" transform="translate(-19.87 62.74) rotate(-21.21)" fill="#bc293c" stroke-width="0"/><path d="M163.08,84.35l-4.83,1.87c-.69-.75-1.12-1.74-1.12-2.84,0-.28.03-.54.08-.8l4.5-1.75,1.37,3.52Z" fill="#7d1b28" stroke-width="0"/><circle cx="91.7" cy="96.92" r="64.86" transform="translate(-13.77 178.65) rotate(-84.36)" fill="#fa3650" stroke-width="0"/><path d="M91.7,32.06c5.36,0,10.56.66,15.54,1.89-31.65,4.3-56.05,31.42-56.05,64.25,0,30.46,21.01,56.01,49.32,62.97-2.88.39-5.82.61-8.81.61-35.82,0-64.86-29.04-64.86-64.86S55.88,32.06,91.7,32.06Z" fill="#bc293c" stroke-width="0"/><rect x="45.46" y="17.73" width="8.95" height="34.18" transform="translate(-10.92 33.23) rotate(-33.39)" fill="#bc293c" stroke-width="0"/><path d="M44.26,18.09l8.28,12.56c-1.48,2.71-3.85,4.86-6.71,6.07l-9.04-13.71,7.47-4.92Z" fill="#7d1b28" stroke-width="0"/><rect x="24.21" y="54.55" width="6.91" height="19.98" transform="translate(-41.87 54.74) rotate(-58.77)" fill="#bc293c" stroke-width="0"/><path d="M20.91,56.41l7.05,4.28c.03.28.05.56.05.85,0,2.27-.96,4.3-2.5,5.74l-8.18-4.96,3.58-5.91Z" fill="#7d1b28" stroke-width="0"/><rect x="11.02" y="120.02" width="28.23" height="8.95" transform="translate(-60.12 30.35) rotate(-30.75)" fill="#bc293c" stroke-width="0"/><path d="M29.33,127.2l-14.04,8.35-4.57-7.69,12.24-7.28c2.85,1.36,5.12,3.71,6.37,6.62Z" fill="#7d1b28" stroke-width="0"/><rect x="134.01" y="46.45" width="35.06" height="8.95" transform="translate(7.63 120.54) rotate(-44.39)" fill="#fa3650" stroke-width="0"/><path d="M160.93,35.46l6.26,6.39-11.47,11.23c-3.11-.76-5.82-2.51-7.77-4.91l12.98-12.71Z" fill="#7d1b28" stroke-width="0"/><rect x="99.05" y="22.09" width="30.29" height="5.37" transform="translate(66.07 131.26) rotate(-77.92)" fill="#fa3650" stroke-width="0"/><path d="M114.74,9.4l5.25,1.12-2.44,11.4c-1.05.38-2.18.59-3.35.59-.76,0-1.5-.09-2.21-.25l2.75-12.86Z" fill="#7d1b28" stroke-width="0"/><path d="M102.86,93.4c0,5.32,2.65,9.64,5.92,9.64s5.92-4.32,5.92-9.64-2.65-9.64-5.92-9.64-5.92,4.31-5.92,9.64Z" fill="#26264a" stroke-width="0"/><path d="M97.94,107.4c5.94-2.73,9.05,2.5,12.64,6.2,4.64,4.77,10.38,7.07,17.05,7.09,5.59.01,10.9-1.29,15.99-3.14.27-.1.54-.18.8-.24,1.92-.46,3.6,1.39,3.03,3.27-4.09,13.46-10.76,16.89-16.91,21.75-2.98,2.35-8.57,3.2-12.37,3.35-5.12.2-11.33-.14-15.85-2.59-3.07-1.66-4.95-3.15-6.92-6.17-2.21-3.39-3.46-7.41-3.48-11.47-.03-5.55.03-15.29,6.01-18.04Z" fill="#7d1b28" stroke-width="0"/><path d="M91.93,125.44c-.03-4.6.02-12.07,3.43-16.06,20.57,12.83,24.99,29,25.93,36.04-1.03.12-2.07.21-3.11.25-5.12.2-11.33-.14-15.85-2.59-3.07-1.66-4.95-3.15-6.92-6.17-2.21-3.39-3.46-7.41-3.48-11.47Z" fill="#5e141e" stroke-width="0"/><path d="M109.02,145.22c-2.4-.4-4.7-1.07-6.68-2.14-3.07-1.66-4.95-3.15-6.92-6.17-2.21-3.39-3.46-7.41-3.48-11.47-.01-2.14,0-4.89.34-7.63,11.66,10.13,15.49,20.99,16.74,27.4Z" fill="#3f0e14" stroke-width="0"/><path d="M97.94,107.4c5.94-2.73,9.05,2.5,12.64,6.2,4.64,4.77,10.38,7.07,17.05,7.09,5.59.01,10.9-1.29,15.99-3.14,1.86-.68,2.82,1.46,3.98,2.22-1.13,4.69-2.22,6.48-5.01,11.3,0,0,0,0,0,0l-1.31-1.71c-.4-.52-1.1-.71-1.71-.45l-5.61,2.38-2.35-3.62-7.42,3.95-4.32-3.71-7.73,1.88-4.34-5.67-7.27,3.89-3.08-7.49-5.52,3.58c.02-5.66.49-14.16,6.01-16.7Z" fill="#fff" stroke-width="0"/><path d="M134.79,71.61c0,2.36,1.91,4.28,4.28,4.28s4.28-1.91,4.28-4.28-1.92-4.28-4.28-4.28-4.28,1.91-4.28,4.28Z" fill="#fb5e73" stroke-width="0"/><path d="M54.01,66c0,3.1,2.51,5.61,5.61,5.61s5.61-2.51,5.61-5.61-2.51-5.61-5.61-5.61-5.61,2.51-5.61,5.61Z" fill="#fa3650" stroke-width="0"/><path d="M51.85,131.71c0,3.1,2.51,5.61,5.61,5.61s5.61-2.51,5.61-5.61-2.51-5.61-5.61-5.61-5.61,2.51-5.61,5.61Z" fill="#fa3650" stroke-width="0"/><path d="M44.56,100.77c0,5.22,4.23,9.45,9.45,9.45s9.45-4.23,9.45-9.45-4.23-9.45-9.45-9.45-9.45,4.23-9.45,9.45Z" fill="#fa3650" stroke-width="0"/><path d="M74.73,62.59c0,5.22,4.23,9.45,9.45,9.45s9.45-4.23,9.45-9.45-4.23-9.45-9.45-9.45-9.45,4.23-9.45,9.45Z" fill="#fb5e73" stroke-width="0"/><circle cx="105.62" cy="50.43" r="3.79" fill="#fb5e73" stroke-width="0"/><path d="M113.15,65.64c0,2.09,1.7,3.79,3.79,3.79s3.79-1.7,3.79-3.79-1.7-3.79-3.79-3.79-3.79,1.7-3.79,3.79Z" fill="#fb5e73" stroke-width="0"/><path d="M86.5,84.17c0,2.09,1.7,3.79,3.79,3.79s3.79-1.7,3.79-3.79-1.7-3.79-3.79-3.79-3.79,1.7-3.79,3.79Z" fill="#fb5e73" stroke-width="0"/><path d="M61.44,80.38c0,2.09,1.7,3.79,3.79,3.79s3.79-1.7,3.79-3.79-1.7-3.79-3.79-3.79-3.79,1.7-3.79,3.79Z" fill="#fb5e73" stroke-width="0"/><path d="M123.28,52.98c0,1.45,1.17,2.62,2.62,2.62s2.62-1.17,2.62-2.62-1.17-2.62-2.62-2.62-2.62,1.17-2.62,2.62Z" fill="#fb5e73" stroke-width="0"/><path d="M135.36,94.75c0,4.74,2.36,8.58,5.27,8.58s5.27-3.84,5.27-8.58-2.36-8.58-5.27-8.58-5.27,3.84-5.27,8.58Z" fill="#26264a" stroke-width="0"/><polygon points="147.91 86.45 126.52 100.42 100.3 81.82 103.52 76.38 146.44 81.41 147.91 86.45" fill="#fa3650" stroke-width="0"/><path d="M26.84,20.55c0,7.56,6.13,13.68,13.68,13.68s13.68-6.13,13.68-13.68-6.13-13.68-13.68-13.68-13.68,6.13-13.68,13.68Z" fill="#bc293c" stroke-width="0"/><path d="M33.13,9.05c-.55,1.49-.87,3.09-.87,4.77,0,7.56,6.13,13.68,13.68,13.68,2.73,0,5.26-.81,7.39-2.18-1.94,5.2-6.93,8.91-12.81,8.91-7.56,0-13.68-6.13-13.68-13.68,0-4.83,2.51-9.07,6.29-11.5Z" fill="#7d1b28" stroke-width="0"/><path d="M5.81,57.12c0,5.64,4.57,10.2,10.2,10.2s10.21-4.57,10.21-10.2-4.57-10.21-10.21-10.21-10.2,4.57-10.2,10.21Z" fill="#bc293c" stroke-width="0"/><path d="M10.11,48.81c-.67,1.35-1.05,2.87-1.05,4.48,0,5.64,4.57,10.21,10.21,10.21,2.21,0,4.24-.71,5.91-1.9-1.66,3.39-5.13,5.72-9.16,5.72-5.64,0-10.2-4.57-10.2-10.2,0-3.43,1.7-6.46,4.29-8.31Z" fill="#7d1b28" stroke-width="0"/><path d="M0,131.71c0,7.18,5.82,13,13,13s13-5.82,13-13-5.82-13-13-13-13,5.82-13,13Z" fill="#bc293c" stroke-width="0"/><path d="M5.44,121.14c-.29,1.07-.45,2.19-.45,3.35,0,7.18,5.82,13,13,13,2.82,0,5.43-.91,7.56-2.44-1.48,5.55-6.53,9.65-12.55,9.65-7.18,0-13-5.82-13-13,0-4.36,2.15-8.21,5.44-10.56Z" fill="#7d1b28" stroke-width="0"/><path d="M149.66,38.66c0,7.96,6.45,14.4,14.4,14.4s14.4-6.45,14.4-14.4-6.45-14.4-14.4-14.4-14.4,6.45-14.4,14.4Z" fill="#fa3650" stroke-width="0"/><path d="M161.18,24.54c-2.93,2.64-4.78,6.45-4.78,10.7,0,7.96,6.45,14.4,14.4,14.4.99,0,1.95-.1,2.89-.29-2.55,2.3-5.92,3.71-9.62,3.71-7.96,0-14.4-6.45-14.4-14.4,0-6.97,4.95-12.78,11.52-14.11Z" fill="#bc293c" stroke-width="0"/><path d="M107.4,9.96c0,5.5,4.46,9.96,9.96,9.96s9.96-4.46,9.96-9.96S122.87,0,117.36,0s-9.96,4.46-9.96,9.96Z" fill="#fa3650" stroke-width="0"/><path d="M114.16.54c-.54,1.23-.84,2.58-.84,4,0,5.5,4.46,9.96,9.96,9.96,1.12,0,2.2-.19,3.21-.54-1.54,3.51-5.04,5.96-9.12,5.96-5.5,0-9.96-4.46-9.96-9.96,0-4.38,2.83-8.09,6.76-9.43Z" fill="#bc293c" stroke-width="0"/><path d="M141.96,150.65c0,3.28,2.66,5.94,5.94,5.94s5.95-2.66,5.95-5.94-2.66-5.95-5.95-5.95-5.94,2.66-5.94,5.95Z" fill="#bc293c" stroke-width="0"/><path d="M146.35,144.92c-.82,1.02-1.32,2.32-1.32,3.73,0,3.28,2.66,5.94,5.94,5.94.54,0,1.06-.08,1.56-.21-1.09,1.35-2.76,2.22-4.63,2.22-3.28,0-5.94-2.66-5.94-5.94,0-2.74,1.86-5.05,4.39-5.73Z" fill="#7d1b28" stroke-width="0"/><path d="M159.13,81.55c0,3.28,2.66,5.94,5.94,5.94s5.95-2.66,5.95-5.94-2.66-5.94-5.95-5.94-5.94,2.66-5.94,5.94Z" fill="#bc293c" stroke-width="0"/><path d="M162.8,76.06c-.37.78-.59,1.64-.59,2.56,0,3.28,2.66,5.94,5.94,5.94.81,0,1.58-.16,2.28-.45-.96,2-2.99,3.38-5.36,3.38-3.28,0-5.94-2.66-5.94-5.94,0-2.48,1.51-4.6,3.67-5.49Z" fill="#7d1b28" stroke-width="0"/><path d="M162.21,118.11c0,4.87,3.94,8.81,8.81,8.81s8.81-3.94,8.81-8.81-3.94-8.81-8.81-8.81-8.81,3.95-8.81,8.81Z" fill="#bc293c" stroke-width="0"/><path d="M167.51,110.03c-.76,1.31-1.21,2.82-1.21,4.44,0,4.87,3.94,8.81,8.81,8.81,1.25,0,2.44-.26,3.52-.73-1.53,2.61-4.36,4.37-7.6,4.37-4.87,0-8.81-3.94-8.81-8.81,0-3.62,2.18-6.72,5.29-8.08Z" fill="#7d1b28" stroke-width="0"/><path d="M168.55,33.99c1.68,1.97,4.05,2.7,5.3,1.64,1.24-1.06.89-3.52-.79-5.49-1.68-1.97-4.05-2.7-5.3-1.64-1.24,1.06-.89,3.52.79,5.49Z" fill="#fb5e73" stroke-width="0"/><path d="M120.59,6.65c.89,1.05,2.16,1.44,2.82.87.66-.57.47-1.87-.42-2.92-.89-1.05-2.16-1.44-2.82-.87-.66.57-.47,1.87.42,2.92Z" fill="#fb5e73" stroke-width="0"/><path d="M40.48,10.5c.58-1.22,2.61-1.47,4.54-.55,1.93.91,3.02,2.64,2.44,3.86-.58,1.22-2.61,1.46-4.54.55-1.93-.91-3.02-2.64-2.45-3.86Z" fill="#fa3650" stroke-width="0"/><path d="M15.17,50.94c.58-1.22,2.61-1.46,4.54-.55,1.93.92,3.02,2.64,2.44,3.86-.58,1.22-2.61,1.46-4.54.55-1.93-.91-3.02-2.64-2.45-3.86Z" fill="#fa3650" stroke-width="0"/><path d="M9.57,122.18c1.66-.77,3.99.73,5.2,3.35,1.22,2.62.86,5.37-.79,6.14-1.65.77-3.98-.73-5.2-3.35-1.22-2.62-.86-5.37.79-6.14Z" fill="#fa3650" stroke-width="0"/><path d="M171.9,113.18c.81-.73,2.41-.28,3.57,1.01,1.16,1.29,1.44,2.93.62,3.66-.81.73-2.41.28-3.57-1.01-1.16-1.29-1.44-2.93-.62-3.66Z" fill="#fa3650" stroke-width="0"/><path d="M165.41,77.06c.69-.62,2.05-.24,3.04.86.99,1.1,1.22,2.49.53,3.11-.69.62-2.05.24-3.04-.86-.99-1.09-1.22-2.49-.53-3.11Z" fill="#fa3650" stroke-width="0"/><path d="M148.33,146.49c.73-.66,2.18-.25,3.22.91,1.04,1.16,1.3,2.64.56,3.3-.73.66-2.18.26-3.22-.91-1.04-1.16-1.3-2.64-.56-3.3Z" fill="#fa3650" stroke-width="0"/><path d="M142.51,122.59c-5.1,1.86-10.41,3.16-16,3.14-6.68-.02-12.42-2.32-17.05-7.09-3.6-3.7-6.71-8.94-12.64-6.2-2.27,1.04-3.68,3.09-4.57,5.53.54-4.43,1.97-8.86,5.69-10.57,5.94-2.73,9.05,2.5,12.64,6.2,4.64,4.77,10.38,7.07,17.05,7.09,5.59.01,10.9-1.29,15.99-3.14.47-.17.92-.28,1.34-.35,1.71-.25,3.08,1.42,2.58,3.08-.25.81-.52,1.61-.82,2.4-1.12-.58-2.56-.7-4.23-.09Z" fill="#c1cbff" stroke-width="0"/><path d="M123.55,83.53c0,1.3,1.05,2.35,2.35,2.35s2.35-1.05,2.35-2.35-1.05-2.35-2.35-2.35-2.35,1.05-2.35,2.35Z" fill="#fb5e73" stroke-width="0"/><path d="M69.32,91.31c0,1.3,1.05,2.35,2.35,2.35s2.35-1.05,2.35-2.35-1.05-2.35-2.35-2.35-2.35,1.05-2.35,2.35Z" fill="#fb5e73" stroke-width="0"/><path d="M57.27,109.3c0,1.3,1.05,2.35,2.35,2.35s2.35-1.05,2.35-2.35-1.05-2.35-2.35-2.35-2.35,1.05-2.35,2.35Z" fill="#fb5e73" stroke-width="0"/></g></svg>