<?xml version="1.0" encoding="UTF-8"?><svg xmlns="http://www.w3.org/2000/svg" viewBox="0 0 124.2 363.28"><g isolation="isolate"><g id="uuid-c4a72a0e-7eef-4147-a588-39a77062d5e0"><g id="uuid-996afbf0-5964-4f4b-b2e2-76f3e87ed475"><ellipse cx="59.51" cy="355.82" rx="59.51" ry="7.46" fill="#0c0c0c" mix-blend-mode="multiply" opacity=".48" stroke-width="0"/><rect x="30.89" y="198.92" width="58.73" height="28.67" rx="12.04" ry="12.04" fill="#32170f" stroke-width="0"/><path d="M47.23,343.37h0c-3.37,0-6.12-2.76-6.12-6.12v-8.33c0-3.37,2.76-6.12,6.12-6.12h0c3.37,0,6.12,2.76,6.12,6.12v8.33c0,3.37-2.76,6.12-6.12,6.12Z" fill="#f6c7a1" stroke-width="0"/><path d="M71.73,343.37h0c-3.37,0-6.12-2.76-6.12-6.12v-8.33c0-3.37,2.76-6.12,6.12-6.12h0c3.37,0,6.12,2.76,6.12,6.12v8.33c0,3.37-2.76,6.12-6.12,6.12Z" fill="#f6c7a1" stroke-width="0"/><path d="M53.3,334.25h-11.37c-2.15,0-3.94-1.68-4.07-3.83l-6.76-108.84c0-7.06,5.78-12.84,12.84-12.84h.61c7.06,0,12.84,5.78,12.84,12.84v108.58c0,2.25-1.83,4.08-4.08,4.08Z" fill="#32170f" stroke-width="0"/><path d="M77.77,334.25h-12.33c-2.25,0-4.08-1.83-4.08-4.08v-108.58c0-7.06,5.78-12.84,12.84-12.84h.61c7.06,0,12.84,5.78,12.84,12.84l-5.79,108.8c-.12,2.17-1.91,3.86-4.07,3.86Z" fill="#32170f" stroke-width="0"/><path d="M119.76,87.42h0c4.21,2.4,5.69,7.81,3.29,12.02l-22.93,40.24c-2.4,4.21-7.81,5.69-12.02,3.29h0c-4.21-2.4-5.69-7.81-3.29-12.02l22.93-40.24c2.4-4.21,7.81-5.69,12.02-3.29Z" fill="#f0f0f0" stroke-width="0"/><path d="M58.77,83.05h0c-.67,3.5,1.64,6.91,5.14,7.58l50.07,9.6c3.5.67,6.91-1.64,7.58-5.14h0c.67-3.5-1.64-6.91-5.14-7.58l-50.07-9.6c-3.5-.67-6.91,1.64-7.58,5.14Z" fill="#f6c7a1" stroke-width="0"/><path d="M90.18,87.93l-.79,4.13c-.7,3.62,1.7,7.16,5.33,7.86l16.48,3.16c5.9,1.13,11.65-2.77,12.78-8.66h0c.7-3.63-1.7-7.16-5.33-7.86l-20.61-3.95c-3.63-.7-7.16,1.7-7.86,5.33Z" fill="#fff" stroke-width="0"/><path d="M91.3,80.9h.75c1.26,0,2.29,1.03,2.29,2.29v14.33c0,1.26-1.03,2.29-2.29,2.29h-.75c-1.26,0-2.29-1.03-2.29-2.29v-14.33c0-1.26,1.03-2.29,2.29-2.29Z" transform="translate(18.66 -15.65) rotate(10.86)" fill="#c8c8c8" stroke-width="0"/><path d="M92.94,123.15h-10.97v48.88c9.92-2.68,17.29-20.45,17.29-31.19v-11.38c0-3.47-2.84-6.31-6.31-6.31Z" fill="#f0f0f0" stroke-width="0"/><rect x="30.89" y="123.84" width="58.73" height="89.08" rx="6.18" ry="6.18" fill="#00627e" stroke-width="0"/><path d="M29.57,123.15c-3.25,0-5.91,2.66-5.91,5.91v10.67c0,12.02,9.83,21.85,21.85,21.85h30.8c1.95,0,3.85-.26,5.65-.75v-37.68H29.57Z" fill="#00627e" stroke-width="0"/><rect x="13.92" y="122.97" width="17.63" height="46.48" rx="7.56" ry="7.56" transform="translate(7.32 293.38) rotate(-165.18)" fill="#f0f0f0" stroke-width="0"/><path d="M35.08,271.59h-6.9c-4.23,0-3.63-2.24-3.91-6.47-2-31,2.73-50.83,3.58-72.6.71-18.11,1.33-29.9,2.22-47.93.56-11.36-8.88-21.7-1.69-21.44h16.74l5.45,74.09.27,66.32c.15,4.39-11.37,8.03-15.76,8.03Z" fill="#fff" stroke-width="0"/><path d="M41.57,122.97l-6.43,16.99c-.53,1.99.05,4.12,1.53,5.55l6.93,6.74-4.07,6.93c-1.22,2.07-1.64,4.51-1.19,6.86,0,0,10.83,59.79,12.37,62.58,1.74-1.04-3.09-105.48-3.09-105.48l-6.04-.18Z" fill="#dadada" stroke-width="0"/><path d="M40.54,166.04c-.45-2.36-.02-4.8,1.19-6.86l4.07-6.93-6.93-6.74c-1.48-1.44-2.06-3.56-1.53-5.55l6.43-16.99h-2.21l-6.43,16.99c-.53,1.99.05,4.12,1.53,5.55l6.93,6.74-4.07,6.93c-1.22,2.07-1.64,4.51-1.19,6.86l12.4,61.54.23-10.41-10.42-51.13Z" fill="#c8c8c8" stroke-width="0"/><path d="M86.61,271.59h6.9c4.23,0,3.63-2.24,3.91-6.47,2-31-2.73-50.83-3.58-72.6-.71-18.11-1.33-29.9-2.22-47.93-.56-11.36,8.88-21.7,1.69-21.44h-16.74l-5.45,74.09-.27,66.32c-.15,4.39,11.37,8.03,15.76,8.03Z" fill="#f0f0f0" stroke-width="0"/><path d="M79.82,122.97l6.43,16.99c.53,1.99-.05,4.12-1.53,5.55l-6.93,6.74,4.07,6.93c1.22,2.07,1.64,4.51,1.19,6.86,0,0-10.83,59.79-12.37,62.58-1.74-1.04,3.09-105.48,3.09-105.48l6.04-.18Z" fill="#dadada" stroke-width="0"/><path d="M80.85,166.04c.45-2.36.02-4.8-1.19-6.86l-4.07-6.93,6.93-6.74c1.48-1.44,2.06-3.56,1.53-5.55l-6.43-16.99h2.21l6.43,16.99c.53,1.99-.05,4.12-1.53,5.55l-6.93,6.74,4.07,6.93c1.22,2.07,1.64,4.51,1.19,6.86l-12.4,61.54-.23-10.41,10.42-51.13Z" fill="#c8c8c8" stroke-width="0"/><path d="M49.13,123.18s-12.11,17.2,1.39,42.68" fill="none" stroke="#344e59" stroke-linecap="round" stroke-miterlimit="10" stroke-width="2.01"/><path d="M56.58,166.2c0-3.35-2.71-6.06-6.06-6.06s-6.06,2.71-6.06,6.06,2.71,6.06,6.06,6.06,6.06-2.71,6.06-6.06Z" fill="#344e59" stroke-width="0"/><path d="M54.23,166.2c0-2.05-1.66-3.71-3.71-3.71s-3.71,1.66-3.71,3.71,1.66,3.71,3.71,3.71,3.71-1.66,3.71-3.71Z" fill="#76a9bf" stroke-width="0"/><path d="M72.75,123.18s4.81,9.94,5.32,18.72" fill="none" stroke="#344e59" stroke-linecap="round" stroke-miterlimit="10" stroke-width="2.01"/><line x1="80.32" y1="155.65" x2="74.7" y2="175.31" fill="none" stroke="#344e59" stroke-linecap="round" stroke-miterlimit="10" stroke-width="2.43"/><line x1="64.3" y1="170.86" x2="68.41" y2="151.8" fill="none" stroke="#344e59" stroke-linecap="round" stroke-miterlimit="10" stroke-width="2.43"/><path d="M67.28,170.86c0-1.65-1.33-2.98-2.98-2.98s-2.98,1.33-2.98,2.98,1.33,2.98,2.98,2.98,2.98-1.33,2.98-2.98Z" fill="#76a9bf" stroke-width="0"/><path d="M77.55,175.31c0-1.65-1.33-2.98-2.98-2.98s-2.98,1.33-2.98,2.98,1.33,2.98,2.98,2.98,2.98-1.33,2.98-2.98Z" fill="#76a9bf" stroke-width="0"/><path d="M80.33,157.48c-.17,0-.33-.02-.5-.07-.97-.28-1.53-1.29-1.25-2.26l.23-.81c.57-2-.35-4.16-2.19-5.14-1.24-.66-2.68-.7-3.95-.1-1.27.59-2.17,1.72-2.47,3.09-.21.99-1.18,1.62-2.17,1.4-.99-.21-1.61-1.18-1.4-2.17.54-2.5,2.18-4.55,4.5-5.63,2.32-1.08,4.95-1.01,7.2.19,3.35,1.78,5.03,5.72,3.98,9.37l-.23.81c-.23.8-.96,1.32-1.75,1.32Z" fill="#76a9bf" stroke-width="0"/><path d="M77.47,149.42c-.15,0-.31-.02-.46-.06-.98-.25-1.56-1.25-1.31-2.23.48-1.83.65-4.02.5-6.49-.06-1.01.71-1.87,1.72-1.93.97-.05,1.87.71,1.93,1.72.17,2.86-.04,5.42-.61,7.62-.21.82-.95,1.36-1.76,1.36Z" fill="#76a9bf" stroke-width="0"/><path d="M60.81,133.67h0c-6.45,0-11.72-5.28-11.72-11.72v-6.52c0-6.45,5.28-11.72,11.72-11.72h0c6.45,0,11.72,5.28,11.72,11.72v6.52c0,6.45-5.28,11.72-11.72,11.72Z" fill="#f0ad7a" stroke-width="0"/><circle cx="84.37" cy="90.25" r="7" fill="#f6c7a1" stroke-width="0"/><circle cx="84.37" cy="90.25" r="5" fill="#f0ad7a" stroke-width="0"/><circle cx="35.37" cy="90.25" r="7" fill="#f6c7a1" stroke-width="0"/><circle cx="35.37" cy="90.25" r="5" fill="#f0ad7a" stroke-width="0"/><rect x="35.87" y="55.75" width="49" height="65" rx="24.5" ry="24.5" fill="#f6c7a1" stroke-width="0"/><path d="M60.37,106.73c-13.48,0-24.5-11.02-24.5-24.5v14.02c0,13.47,11.02,24.5,24.5,24.5s24.5-11.03,24.5-24.5v-14.02c0,13.48-11.02,24.5-24.5,24.5Z" fill="#55402f" stroke-width="0"/><path d="M60.37,55.75c-13.48,0-24.5,11.02-24.5,24.5v11c0-13.48,11.02-24.5,24.5-24.5s24.5,11.02,24.5,24.5v-11c0-13.48-11.02-24.5-24.5-24.5Z" fill="#bb997e" stroke-width="0"/><path d="M67.71,71.58h-15.42c-6,0-10.92-4.91-10.92-10.92h0c0-6,4.91-10.92,10.92-10.92h34.58v2.67c0,10.54-8.62,19.17-19.17,19.17Z" fill="#55402f" stroke-width="0"/><path d="M54.2,47.68h29.01v2.24c0,8.87-7.2,16.08-16.08,16.08h-12.93c-5.05,0-9.16-4.1-9.16-9.16h0c0-5.05,4.1-9.16,9.16-9.16Z" fill="#55402f" stroke-width="0"/><path d="M49.75,62.15h24.3c3.72,0,6.75,3.02,6.75,6.75v.94h-31.04c-2.12,0-3.84-1.72-3.84-3.84h0c0-2.12,1.72-3.84,3.84-3.84Z" fill="#55402f" stroke-width="0"/><circle cx="52.94" cy="88.43" r="1.87" fill="#55402f" stroke-width="0"/><circle cx="71.53" cy="88.25" r="1.87" fill="#55402f" stroke-width="0"/><path d="M65.81,80.54c1.36-1.29,3.59-1.62,5.56-.67.9.44,1.63,1.08,2.14,1.84" fill="none" stroke="#55402f" stroke-linecap="round" stroke-miterlimit="10" stroke-width="2"/><path d="M46.91,84.6c.99-1.59,3.06-2.48,5.21-2.06.99.19,1.85.63,2.53,1.23" fill="none" stroke="#55402f" stroke-linecap="round" stroke-miterlimit="10" stroke-width="2"/><circle cx="60.37" cy="110.08" r="11.83" transform="translate(-56.53 64.29) rotate(-39.86)" fill="#55402f" stroke-width="0"/><ellipse cx="60.37" cy="108.88" rx="8.6" ry="7.4" fill="#f6c7a1" stroke-width="0"/><path d="M60.25,100.63h0c-1.79,0-3.25-1.46-3.25-3.25,0,0,1.46-10.38,3.25-10.38h0c1.79,0,3.25,10.38,3.25,10.38,0,1.79-1.46,3.25-3.25,3.25Z" fill="#f0ad7a" stroke-width="0"/><path d="M59.51,104.44c.99-.94,2.61-1.18,4.05-.49.66.32,1.19.79,1.56,1.34" fill="none" stroke="#55402f" stroke-linecap="round" stroke-miterlimit="10"/><path d="M34.24,351.67l3.29-11.3c.21-.73,1.31-1.12,2.25-.81,2.74.92,8.17,2.19,13.53.25,1.03-.37,2.26.1,2.36.92l1.47,12.5-22.9-1.56Z" fill="#004162" stroke-width="0"/><path d="M54.01,357.99h-17.05c-1.75,0-3.16-1.01-3.16-2.26v-2.05c0-4.61,5.23-8.34,11.69-8.34h0c6.45,0,11.69,3.73,11.69,8.34v2.05c0,1.25-1.42,2.26-3.16,2.26Z" fill="#002031" stroke-width="0"/><path d="M45.48,345.35c-6.45,0-11.69,3.73-11.69,8.34v1.38c0-4.61,5.23-8.34,11.69-8.34s11.69,3.73,11.69,8.34v-1.38c0-4.61-5.23-8.34-11.69-8.34Z" fill="#00293e" stroke-width="0"/><path d="M33.8,354.28h23.37v1.9c0,1-.81,1.82-1.82,1.82h-19.74c-1,0-1.82-.81-1.82-1.82v-1.9h0Z" fill="#fff" stroke-width="0"/><path d="M55.02,356.93h-19.07c-1.19,0-2.15-.69-2.15-1.54v1.07c0,.85.96,1.54,2.15,1.54h19.07c1.19,0,2.15-.69,2.15-1.54v-1.07c0,.85-.96,1.54-2.15,1.54Z" fill="#ececec" stroke-width="0"/><path d="M51,342.79h-9.35c-.37,0-.67-.22-.67-.48h0c0-.27.3-.48.67-.48h9.35c.37,0,.67.22.67.48h0c0,.27-.3.48-.67.48Z" fill="#fff" stroke-width="0"/><path d="M51,344.51h-9.35c-.37,0-.67-.22-.67-.48h0c0-.27.3-.48.67-.48h9.35c.37,0,.67.21.67.48h0c0,.27-.3.48-.67.48Z" fill="#fff" stroke-width="0"/><path d="M41.15,341.83l-1.18-2.42c-1.07-2.18,1.2-4.46,4.44-4.46h4.05c3.35,0,5.63,2.43,4.34,4.64l-1.3,2.23h-10.34Z" fill="#005b88" stroke-width="0"/><path d="M44.3,336.01h4.05c2.55,0,4.47,1.41,4.68,3.05.67-2.05-1.49-4.1-4.57-4.1h-4.05c-2.84,0-4.93,1.75-4.68,3.66.47-1.45,2.27-2.6,4.58-2.6Z" fill="#00699c" stroke-width="0"/><path d="M84.08,351.67l-3.29-11.3c-.21-.73-1.31-1.12-2.25-.81-2.73.92-8.17,2.19-13.53.25-1.03-.37-2.26.1-2.36.92l-1.47,12.5,22.9-1.56Z" fill="#004162" stroke-width="0"/><path d="M64.32,357.99h17.05c1.75,0,3.16-1.01,3.16-2.26v-2.05c0-4.61-5.23-8.34-11.69-8.34h0c-6.45,0-11.69,3.73-11.69,8.34v2.05c0,1.25,1.42,2.26,3.16,2.26Z" fill="#002031" stroke-width="0"/><path d="M72.84,345.35c6.45,0,11.69,3.73,11.69,8.34v1.38c0-4.61-5.23-8.34-11.69-8.34s-11.69,3.73-11.69,8.34v-1.38c0-4.61,5.23-8.34,11.69-8.34Z" fill="#00293e" stroke-width="0"/><path d="M62.98,354.28h19.74c1,0,1.82.81,1.82,1.82v1.9h-23.37v-1.9c0-1,.81-1.82,1.82-1.82Z" transform="translate(145.69 712.27) rotate(180)" fill="#fff" stroke-width="0"/><path d="M63.31,356.93h19.07c1.19,0,2.15-.69,2.15-1.54v1.07c0,.85-.96,1.54-2.15,1.54h-19.07c-1.19,0-2.15-.69-2.15-1.54v-1.07c0,.85.96,1.54,2.15,1.54Z" fill="#ececec" stroke-width="0"/><path d="M67.33,342.79h9.35c.37,0,.67-.22.67-.48h0c0-.27-.3-.48-.67-.48h-9.35c-.37,0-.67.22-.67.48h0c0,.27.3.48.67.48Z" fill="#fff" stroke-width="0"/><path d="M67.33,344.51h9.35c.37,0,.67-.22.67-.48h0c0-.27-.3-.48-.67-.48h-9.35c-.37,0-.67.21-.67.48h0c0,.27.3.48.67.48Z" fill="#fff" stroke-width="0"/><path d="M77.18,341.83l1.18-2.42c1.07-2.18-1.2-4.46-4.44-4.46h-4.05c-3.35,0-5.63,2.43-4.34,4.64l1.3,2.23h10.34Z" fill="#005b88" stroke-width="0"/><path d="M74.03,336.01h-4.05c-2.55,0-4.47,1.41-4.68,3.05-.67-2.05,1.49-4.1,4.57-4.1h4.05c2.84,0,4.93,1.75,4.68,3.66-.47-1.45-2.27-2.6-4.58-2.6Z" fill="#00699c" stroke-width="0"/><path d="M34.47,122.42h.96c3.4,0,6.15,2.76,6.15,6.15v42.57c0,3.4-2.76,6.15-6.15,6.15h-.96c-3.4,0-6.15-2.76-6.15-6.15v-42.57c0-3.4,2.76-6.15,6.15-6.15Z" transform="translate(-61.78 269.53) rotate(-127.93)" fill="#f6c7a1" stroke-width="0"/><path d="M11.88,168.27h0c2.98,3.82,8.55,4.51,12.37,1.53l17.91-13.96c.65-.51.77-1.46.26-2.11l-8.99-11.53c-.51-.65-1.46-.77-2.11-.26l-17.91,13.96c-3.82,2.98-4.51,8.55-1.53,12.37Z" fill="#fff" stroke-width="0"/><rect x="34.92" y="138.35" width="5.33" height="18.91" rx="2.29" ry="2.29" transform="translate(-82.92 54.33) rotate(-37.93)" fill="#c8c8c8" stroke-width="0"/><path d="M49.25,138.02h0c3.01,3.68,8.48,4.23,12.16,1.22l2.9-2.37c3.68-3.01,4.23-8.48,1.22-12.16h0c-3.01-3.68-8.48-4.23-12.16-1.22l-2.9,2.37c-3.68,3.01-4.23,8.48-1.22,12.16Z" fill="#f6c7a1" stroke-width="0"/><path d="M69.48,129.77c-.7-.86-1.99-.99-2.85-.29l-6.76,5.52c.9,1,1.75,2.05,2.62,3.09l6.7-5.48c.86-.7.99-1.99.29-2.85Z" fill="#f6c7a1" stroke-width="0"/><path d="M55.06,136.5h0c.7.86,1.99.99,2.85.29l10.47-8.56c.86-.7.99-1.99.29-2.85h0c-.7-.86-1.99-.99-2.85-.29l-10.47,8.56c-.86.7-.99,1.99-.29,2.85Z" fill="#f6c7a1" stroke-width="0"/><path d="M53.19,132.7h0c.7.86,1.99.99,2.85.29l10.47-8.56c.86-.7.99-1.99.29-2.85h0c-.7-.86-1.99-.99-2.85-.29l-10.47,8.56c-.86.71-.99,1.99-.29,2.85Z" fill="#f6c7a1" stroke-width="0"/><path d="M55.06,126.13h0c.7.86,1.99.99,2.85.29l10.47-8.56c.86-.7.99-1.99.29-2.85h0c-.7-.86-1.99-.99-2.85-.29l-10.47,8.56c-.86.7-.99,1.99-.29,2.85Z" fill="#f6c7a1" stroke-width="0"/><path d="M49.83,129.78h0c.86.52,1.98.25,2.5-.61l5.28-8.67c.52-.86.25-1.98-.61-2.5h0c-.86-.52-1.98-.25-2.5.61l-5.28,8.67c-.52.86-.25,1.98.61,2.5Z" fill="#f6c7a1" stroke-width="0"/><text transform="translate(54.63 40.63)" fill="#fff" font-family="Black, IRANSansXٰV" font-size="50.78" font-variation-settings="&apos;wght&apos; 900, &apos;dots&apos; 0"><tspan x="0" y="0">?</tspan></text></g></g></g></svg>
